<?xml version="1.0" standalone="no"?>
<!DOCTYPE svg PUBLIC "-//W3C//DTD SVG 20010904//EN"
 "http://www.w3.org/TR/2001/REC-SVG-20010904/DTD/svg10.dtd">
<svg version="1.0" xmlns="http://www.w3.org/2000/svg"
 width="216.000000pt" height="216.000000pt" viewBox="0 0 216.000000 216.000000"
 preserveAspectRatio="xMidYMid meet">
<metadata>
Created by potrace 1.15, written by Peter Selinger 2001-2017
</metadata>
<g transform="translate(0.000000,216.000000) scale(0.100000,-0.100000)"
fill="#000000" stroke="none">
<path d="M740 2070 c-42 -23 -46 -25 -85 -36 -23 -8 -29 -15 -27 -32 3 -23
-23 -32 -30 -11 -4 12 -78 -19 -78 -33 0 -4 -7 -8 -15 -8 -26 0 -75 -30 -75
-45 0 -8 -8 -15 -17 -15 -23 0 -63 -39 -56 -56 3 -7 -5 -25 -16 -40 -12 -15
-21 -33 -21 -42 0 -12 -3 -12 -15 -2 -12 10 -23 5 -60 -25 -25 -21 -45 -44
-45 -51 0 -8 -4 -14 -9 -14 -11 0 -61 -76 -61 -94 0 -8 -5 -16 -10 -18 -6 -2
-22 -36 -35 -76 -19 -53 -23 -77 -16 -90 7 -13 7 -22 0 -29 -7 -7 -5 -24 5
-54 8 -24 13 -45 11 -47 -2 -2 -6 6 -10 17 -13 42 -41 16 -51 -46 -5 -35 -3
-42 12 -46 16 -4 17 -5 2 -6 -20 -1 -14 -29 10 -48 12 -10 12 -15 3 -27 -6 -8
-13 -40 -14 -73 -1 -32 -6 -61 -12 -65 -7 -5 -6 -14 2 -27 6 -10 9 -28 6 -40
-4 -16 -1 -21 16 -21 12 0 21 -6 21 -15 0 -8 -5 -15 -11 -15 -23 0 14 -114 44
-137 6 -5 22 -10 33 -11 17 0 21 4 17 19 -3 10 0 19 6 19 6 0 13 -11 17 -25 8
-32 33 -39 135 -38 276 4 650 271 768 546 l20 47 -132 -2 c-111 -3 -137 0
-164 15 -40 21 -60 58 -69 127 l-7 53 144 -5 c187 -7 242 2 358 58 120 57 164
64 211 32 82 -56 78 -108 -15 -178 -108 -82 -157 -139 -206 -240 -83 -170
-261 -391 -395 -490 -133 -99 -299 -151 -487 -154 l-118 -1 6 -25 c7 -29 53
-80 72 -80 7 0 13 -8 13 -18 0 -11 10 -27 21 -38 12 -10 25 -29 30 -42 5 -14
17 -22 31 -22 12 0 37 -14 55 -32 18 -18 33 -27 33 -20 0 7 8 4 18 -6 11 -11
40 -25 65 -33 26 -7 47 -19 47 -26 0 -7 12 -13 26 -13 14 0 38 -8 52 -19 15
-10 53 -21 86 -24 43 -4 62 -11 73 -26 17 -25 73 -29 73 -6 0 8 7 15 15 15 8
0 15 -6 15 -14 0 -27 106 -28 139 -2 12 9 13 7 8 -8 -6 -14 -4 -17 8 -12 8 3
15 2 15 -3 0 -4 11 -6 25 -3 16 3 25 11 25 23 0 11 7 19 15 19 8 0 15 -7 15
-15 0 -24 67 -20 82 5 10 16 20 18 49 14 25 -4 44 -1 63 11 14 9 32 15 40 12
8 -3 17 1 20 9 3 8 13 14 22 14 11 0 14 -5 10 -16 -5 -13 -1 -15 21 -9 15 3
30 10 33 14 3 4 16 11 30 14 39 10 170 100 183 127 7 13 18 25 26 28 9 3 11 0
6 -9 -4 -8 28 22 70 65 43 43 84 94 91 112 8 19 18 34 23 34 15 0 83 119 75
131 -5 8 -3 9 6 4 10 -6 12 -4 7 8 -4 10 -2 17 4 17 7 0 9 12 7 29 -3 22 0 31
14 34 14 4 18 15 18 49 0 54 -9 66 -28 36 l-13 -23 6 25 c25 94 35 155 35 223
0 52 4 76 11 75 6 -2 16 10 22 26 8 25 7 32 -12 47 -24 19 -27 39 -9 57 9 9 9
12 0 12 -7 0 -12 16 -12 40 0 22 -5 40 -11 40 -6 0 -9 8 -7 18 4 17 -36 121
-50 132 -4 3 -13 16 -20 30 -6 14 -18 34 -24 44 -7 11 -32 50 -55 87 -23 37
-58 80 -79 95 -21 16 -59 50 -85 75 -42 41 -78 64 -239 150 -28 15 -73 29
-109 32 -39 4 -67 13 -79 25 -23 23 -106 31 -252 25 -58 -3 -140 -5 -183 -6
-56 -2 -80 -6 -87 -17 -5 -8 -12 -11 -17 -6 -4 4 0 12 10 17 10 6 14 15 10 22
-5 7 -8 23 -8 37 0 32 -28 36 -75 10z m1240 -858 c54 -27 75 -73 75 -164 0
-85 -17 -121 -70 -147 -36 -18 -56 -6 -68 40 -5 19 -14 40 -22 48 -55 56 -531
-168 -612 -288 -14 -21 -23 -49 -23 -72 0 -73 95 -134 228 -146 70 -6 144 13
244 63 110 55 122 47 74 -52 -54 -112 -105 -147 -231 -159 -168 -17 -354 67
-415 186 -62 120 -16 306 108 440 103 111 267 208 424 249 97 25 240 27 288 2z"/>
</g>
</svg>
